<?xml version="1.0" standalone="no"?><!DOCTYPE svg PUBLIC "-//W3C//DTD SVG 1.1//EN" "http://www.w3.org/Graphics/SVG/1.1/DTD/svg11.dtd"><svg class="icon" width="256px" height="256.00px" viewBox="0 0 1024 1024" version="1.1" xmlns="http://www.w3.org/2000/svg"><path fill="#000000" d="M776.1 83.8H247.9c-44.1 0-80 35.9-80 80v696.4c0 44.1 35.9 80 80 80h528.2c44.1 0 80-35.9 80-80V163.8c0-44.1-35.9-80-80-80z m-528.2 40h528.2c22.1 0 40 17.9 40 40v586.3H207.9V163.8c0-22 18-40 40-40z m528.2 776.4H247.9c-22.1 0-40-17.9-40-40v-70.1h608.2v70.1c0 22-18 40-40 40z"  /><path fill="#000000" d="M513.4 845.2m-47.1 0a47.1 47.1 0 1 0 94.2 0 47.1 47.1 0 1 0-94.2 0Z"  /></svg>